
                <svg id="trend-chart" width="660" height="400" title="Stack Overflow Trends Chart" version="1.1" xmlns="http://www.w3.org/2000/svg"><g></g><g class="chart-area" transform="translate(100, 20)"><g transform="translate(0,300)" fill="none" font-size="10" font-family="sans-serif" text-anchor="middle"><path class="domain" stroke="#000" d="M0.5,6V0.5H410.5V6"></path><g class="tick" opacity="1" transform="translate(17.181567177802116,0)"><line stroke="#000" y2="6" x1="0.5" x2="0.5"></line><text fill="#000" y="9" x="0.5" dy="0.71em" style="font-size: 12px;">2009</text></g><g class="tick" opacity="1" transform="translate(58.15911372763782,0)"><line stroke="#000" y2="6" x1="0.5" x2="0.5"></line><text fill="#000" y="9" x="0.5" dy="0.71em" style="font-size: 12px;">2010</text></g><g class="tick" opacity="1" transform="translate(99.13666027747352,0)"><line stroke="#000" y2="6" x1="0.5" x2="0.5"></line><text fill="#000" y="9" x="0.5" dy="0.71em" style="font-size: 12px;">2011</text></g><g class="tick" opacity="1" transform="translate(140.11420682730923,0)"><line stroke="#000" y2="6" x1="0.5" x2="0.5"></line><text fill="#000" y="9" x="0.5" dy="0.71em" style="font-size: 12px;">2012</text></g><g class="tick" opacity="1" transform="translate(181.20402062796643,0)"><line stroke="#000" y2="6" x1="0.5" x2="0.5"></line><text fill="#000" y="9" x="0.5" dy="0.71em" style="font-size: 12px;">2013</text></g><g class="tick" opacity="1" transform="translate(222.18156717780212,0)"><line stroke="#000" y2="6" x1="0.5" x2="0.5"></line><text fill="#000" y="9" x="0.5" dy="0.71em" style="font-size: 12px;">2014</text></g><g class="tick" opacity="1" transform="translate(263.1591137276378,0)"><line stroke="#000" y2="6" x1="0.5" x2="0.5"></line><text fill="#000" y="9" x="0.5" dy="0.71em" style="font-size: 12px;">2015</text></g><g class="tick" opacity="1" transform="translate(304.13666027747354,0)"><line stroke="#000" y2="6" x1="0.5" x2="0.5"></line><text fill="#000" y="9" x="0.5" dy="0.71em" style="font-size: 12px;">2016</text></g><g class="tick" opacity="1" transform="translate(345.2264740781307,0)"><line stroke="#000" y2="6" x1="0.5" x2="0.5"></line><text fill="#000" y="9" x="0.5" dy="0.71em" style="font-size: 12px;">2017</text></g><g class="tick" opacity="1" transform="translate(386.2040206279664,0)"><line stroke="#000" y2="6" x1="0.5" x2="0.5"></line><text fill="#000" y="9" x="0.5" dy="0.71em" style="font-size: 12px;">2018</text></g></g><g class="grid-lines" transform="translate(0,300)" fill="none" font-size="10" font-family="sans-serif" text-anchor="middle"><path class="domain" stroke="#000" d="M0.5,-300V0.5H410.5V-300"></path><g class="tick" opacity="1" transform="translate(17.181567177802116,0)"><line stroke="#000" y2="-300" x1="0.5" x2="0.5" style="stroke: #ccc; fill: none;"></line></g><g class="tick" opacity="1" transform="translate(58.15911372763782,0)"><line stroke="#000" y2="-300" x1="0.5" x2="0.5" style="stroke: #ccc; fill: none;"></line></g><g class="tick" opacity="1" transform="translate(99.13666027747352,0)"><line stroke="#000" y2="-300" x1="0.5" x2="0.5" style="stroke: #ccc; fill: none;"></line></g><g class="tick" opacity="1" transform="translate(140.11420682730923,0)"><line stroke="#000" y2="-300" x1="0.5" x2="0.5" style="stroke: #ccc; fill: none;"></line></g><g class="tick" opacity="1" transform="translate(181.20402062796643,0)"><line stroke="#000" y2="-300" x1="0.5" x2="0.5" style="stroke: #ccc; fill: none;"></line></g><g class="tick" opacity="1" transform="translate(222.18156717780212,0)"><line stroke="#000" y2="-300" x1="0.5" x2="0.5" style="stroke: #ccc; fill: none;"></line></g><g class="tick" opacity="1" transform="translate(263.1591137276378,0)"><line stroke="#000" y2="-300" x1="0.5" x2="0.5" style="stroke: #ccc; fill: none;"></line></g><g class="tick" opacity="1" transform="translate(304.13666027747354,0)"><line stroke="#000" y2="-300" x1="0.5" x2="0.5" style="stroke: #ccc; fill: none;"></line></g><g class="tick" opacity="1" transform="translate(345.2264740781307,0)"><line stroke="#000" y2="-300" x1="0.5" x2="0.5" style="stroke: #ccc; fill: none;"></line></g><g class="tick" opacity="1" transform="translate(386.2040206279664,0)"><line stroke="#000" y2="-300" x1="0.5" x2="0.5" style="stroke: #ccc; fill: none;"></line></g></g><text x="205" y="360" class="axis-label x-axis-label" style="text-anchor: middle; font-weight: bold;">Year</text><g fill="none" font-size="10" font-family="sans-serif" text-anchor="end"><path class="domain" stroke="#000" d="M-6,300.5H0.5V0.5H-6"></path><g class="tick" opacity="1" transform="translate(0,300)"><line stroke="#000" x2="-6" y1="0.5" y2="0.5"></line><text fill="#000" x="-9" y="0.5" dy="0.32em" style="font-size: 12px;">0.00%</text></g><g class="tick" opacity="1" transform="translate(0,270)"><line stroke="#000" x2="-6" y1="0.5" y2="0.5"></line><text fill="#000" x="-9" y="0.5" dy="0.32em" style="font-size: 12px;">0.20%</text></g><g class="tick" opacity="1" transform="translate(0,240)"><line stroke="#000" x2="-6" y1="0.5" y2="0.5"></line><text fill="#000" x="-9" y="0.5" dy="0.32em" style="font-size: 12px;">0.40%</text></g><g class="tick" opacity="1" transform="translate(0,210)"><line stroke="#000" x2="-6" y1="0.5" y2="0.5"></line><text fill="#000" x="-9" y="0.5" dy="0.32em" style="font-size: 12px;">0.60%</text></g><g class="tick" opacity="1" transform="translate(0,180)"><line stroke="#000" x2="-6" y1="0.5" y2="0.5"></line><text fill="#000" x="-9" y="0.5" dy="0.32em" style="font-size: 12px;">0.80%</text></g><g class="tick" opacity="1" transform="translate(0,150)"><line stroke="#000" x2="-6" y1="0.5" y2="0.5"></line><text fill="#000" x="-9" y="0.5" dy="0.32em" style="font-size: 12px;">1.00%</text></g><g class="tick" opacity="1" transform="translate(0,120)"><line stroke="#000" x2="-6" y1="0.5" y2="0.5"></line><text fill="#000" x="-9" y="0.5" dy="0.32em" style="font-size: 12px;">1.20%</text></g><g class="tick" opacity="1" transform="translate(0,90)"><line stroke="#000" x2="-6" y1="0.5" y2="0.5"></line><text fill="#000" x="-9" y="0.5" dy="0.32em" style="font-size: 12px;">1.40%</text></g><g class="tick" opacity="1" transform="translate(0,60)"><line stroke="#000" x2="-6" y1="0.5" y2="0.5"></line><text fill="#000" x="-9" y="0.5" dy="0.32em" style="font-size: 12px;">1.60%</text></g><g class="tick" opacity="1" transform="translate(0,30)"><line stroke="#000" x2="-6" y1="0.5" y2="0.5"></line><text fill="#000" x="-9" y="0.5" dy="0.32em" style="font-size: 12px;">1.80%</text></g><g class="tick" opacity="1" transform="translate(0,0)"><line stroke="#000" x2="-6" y1="0.5" y2="0.5"></line><text fill="#000" x="-9" y="0.5" dy="0.32em" style="font-size: 12px;">2.00%</text></g></g><g class="grid-lines" fill="none" font-size="10" font-family="sans-serif" text-anchor="end"><path class="domain" stroke="#000" d="M410,300.5H0.5V0.5H410"></path><g class="tick" opacity="1" transform="translate(0,300)"><line stroke="#000" x2="410" y1="0.5" y2="0.5" style="stroke: #ccc; fill: none;"></line></g><g class="tick" opacity="1" transform="translate(0,270)"><line stroke="#000" x2="410" y1="0.5" y2="0.5" style="stroke: #ccc; fill: none;"></line></g><g class="tick" opacity="1" transform="translate(0,240)"><line stroke="#000" x2="410" y1="0.5" y2="0.5" style="stroke: #ccc; fill: none;"></line></g><g class="tick" opacity="1" transform="translate(0,210)"><line stroke="#000" x2="410" y1="0.5" y2="0.5" style="stroke: #ccc; fill: none;"></line></g><g class="tick" opacity="1" transform="translate(0,180)"><line stroke="#000" x2="410" y1="0.5" y2="0.5" style="stroke: #ccc; fill: none;"></line></g><g class="tick" opacity="1" transform="translate(0,150)"><line stroke="#000" x2="410" y1="0.5" y2="0.5" style="stroke: #ccc; fill: none;"></line></g><g class="tick" opacity="1" transform="translate(0,120)"><line stroke="#000" x2="410" y1="0.5" y2="0.5" style="stroke: #ccc; fill: none;"></line></g><g class="tick" opacity="1" transform="translate(0,90)"><line stroke="#000" x2="410" y1="0.5" y2="0.5" style="stroke: #ccc; fill: none;"></line></g><g class="tick" opacity="1" transform="translate(0,60)"><line stroke="#000" x2="410" y1="0.5" y2="0.5" style="stroke: #ccc; fill: none;"></line></g><g class="tick" opacity="1" transform="translate(0,30)"><line stroke="#000" x2="410" y1="0.5" y2="0.5" style="stroke: #ccc; fill: none;"></line></g><g class="tick" opacity="1" transform="translate(0,0)"><line stroke="#000" x2="410" y1="0.5" y2="0.5" style="stroke: #ccc; fill: none;"></line></g></g><g class="lines"><path class="line" d="M3.480284775465498,266.85L6.848302300109529,245.55L10.333264877692589,259.35L13.70128240233662,253.5L17.181567177802116,235.64999999999998L20.661851953267618,251.25L23.80533497626871,250.05L27.280941949616647,234.15L30.648959474260682,236.25L34.12924424972618,231.45L37.49726177437021,235.64999999999998L40.97754654983571,230.25L44.45783132530121,220.05L47.82584884994524,232.2L51.3108114275283,230.55L54.67882895217233,220.95L58.15911372763782,223.2L61.63939850310332,220.35000000000002L64.78288152610442,216L68.25848849945235,208.2L71.62650602409639,212.55L75.10679079956188,216.60000000000002L78.47480832420591,206.4L81.95509309967142,208.65L85.43537787513691,203.25L88.80339539978094,190.35000000000002L92.288357977364,191.4L95.65637550200803,190.65L99.13666027747352,184.5L102.61694505293902,175.95L105.76042807594013,189.9L109.23603504928806,177.6L112.60405257393208,164.85L116.0843373493976,159.3L119.45235487404162,158.25L122.93263964950711,156.00000000000003L126.41292442497263,158.85L129.78094194961665,167.7L133.26590452719972,160.5L136.63392205184374,151.49999999999997L140.11420682730923,163.35L143.59449160277475,141.75L146.8502418765973,139.05L150.32584884994523,140.10000000000002L153.69386637458928,134.25L157.17415115005477,129.9L160.5421686746988,133.95L164.0224534501643,143.7L167.5027382256298,139.34999999999997L170.87075575027382,132.15L174.3557183278569,132.60000000000002L177.7237358525009,131.85L181.20402062796643,123.9L184.68430540343192,118.35000000000002L187.82778842643302,107.4L191.30339539978095,115.04999999999998L194.67141292442497,111.30000000000001L198.15169769989046,106.20000000000002L201.5197152245345,108.15L205,93.29999999999998L208.4802847754655,94.20000000000002L211.84830230010954,89.85L215.33326487769259,90.30000000000001L218.70128240233663,82.49999999999997L222.18156717780212,77.1L225.66185195326761,66.15L228.8053349762687,66.45000000000002L232.28094194961665,63.60000000000002L235.6489594742607,74.4L239.12924424972618,51.29999999999998L242.49726177437023,48.60000000000002L245.97754654983572,52.650000000000006L249.4578313253012,61.5L252.82584884994526,67.5L256.3108114275283,62.25L259.67882895217235,67.65L263.1591137276378,53.99999999999997L266.63939850310334,60L269.7828815261044,47.400000000000006L273.25848849945237,50.25L276.6265060240964,36.30000000000001L280.1067907995619,40.5L283.4748083242059,24.149999999999977L286.9550930996714,32.85000000000002L290.4353778751369,44.54999999999998L293.8033953997809,36.75L297.288357977364,28.650000000000034L300.656375502008,31.200000000000045L304.13666027747354,26.55000000000001L307.61694505293906,17.850000000000023L310.8726953267616,25.94999999999999L314.34830230010954,19.05000000000001L317.71631982475355,24.900000000000034L321.1966046002191,16.19999999999999L324.5646221248631,6.75L328.0449069003286,4.9500000000000455L331.5251916757941,24.149999999999977L334.8932092004381,33.30000000000001L338.37817177802117,15.75L341.74618930266524,23.099999999999966L345.2264740781307,11.849999999999966L348.7067588535962,15.149999999999977L351.8502418765973,14.100000000000023L355.32584884994526,16.350000000000023L358.6938663745893,8.099999999999966L362.17415115005474,7.949999999999989L365.5421686746988,5.850000000000023L369.0224534501643,18L372.5027382256298,26.25L375.8707557502738,31.200000000000045L379.3557183278569,24.599999999999966L382.7237358525009,17.850000000000023L386.2040206279664,18.900000000000034L389.68430540343195,48.44999999999999L392.82778842643296,70.94999999999999L396.3033953997809,62.55000000000001L399.671412924425,58.650000000000006L403.15169769989046,72L406.5197152245345,69.90000000000003L410,68.4" data-legend="json" style="stroke: rgb(31, 119, 180); fill: none;"></path><path class="line" d="M3.480284775465498,43.19999999999999L6.848302300109529,50.400000000000006L10.333264877692589,43.05000000000001L13.70128240233662,74.85L17.181567177802116,80.85L20.661851953267618,74.25000000000003L23.80533497626871,63L27.280941949616647,67.5L30.648959474260682,87.30000000000001L34.12924424972618,37.49999999999994L37.49726177437021,63.75L40.97754654983571,62.849999999999966L44.45783132530121,63L47.82584884994524,73.35L51.3108114275283,88.04999999999998L54.67882895217233,67.79999999999998L58.15911372763782,92.1L61.63939850310332,78.6L64.78288152610442,88.04999999999998L68.25848849945235,105L71.62650602409639,92.25L75.10679079956188,80.25L78.47480832420591,97.05000000000001L81.95509309967142,99.30000000000001L85.43537787513691,104.1L88.80339539978094,100.79999999999998L92.288357977364,79.5L95.65637550200803,100.50000000000003L99.13666027747352,92.25L102.61694505293902,108.29999999999998L105.76042807594013,105.15L109.23603504928806,94.05000000000004L112.60405257393208,90.15L116.0843373493976,75.75000000000006L119.45235487404162,90.44999999999999L122.93263964950711,95.1L126.41292442497263,113.1L129.78094194961665,102.15L133.26590452719972,117.30000000000001L136.63392205184374,112.35L140.11420682730923,115.5L143.59449160277475,106.64999999999998L146.8502418765973,118.04999999999998L150.32584884994523,114.75000000000003L153.69386637458928,101.10000000000002L157.17415115005477,121.20000000000002L160.5421686746988,113.1L164.0224534501643,118.80000000000001L167.5027382256298,122.69999999999999L170.87075575027382,129.15L174.3557183278569,133.65L177.7237358525009,142.79999999999998L181.20402062796643,137.25L184.68430540343192,135.15L187.82778842643302,146.7L191.30339539978095,127.19999999999999L194.67141292442497,134.25L198.15169769989046,138.15L201.5197152245345,139.34999999999997L205,139.2L208.4802847754655,114.14999999999998L211.84830230010954,123.29999999999998L215.33326487769259,114.9L218.70128240233663,117.6L222.18156717780212,109.94999999999999L225.66185195326761,115.35000000000002L228.8053349762687,126.30000000000001L232.28094194961665,124.20000000000002L235.6489594742607,115.80000000000001L239.12924424972618,115.64999999999998L242.49726177437023,122.09999999999997L245.97754654983572,124.35L249.4578313253012,128.85L252.82584884994526,133.8L256.3108114275283,131.10000000000002L259.67882895217235,129.75L263.1591137276378,138.45000000000002L266.63939850310334,136.35L269.7828815261044,136.20000000000002L273.25848849945237,138.75L276.6265060240964,139.79999999999998L280.1067907995619,129.3L283.4748083242059,133.35L286.9550930996714,139.2L290.4353778751369,149.4L293.8033953997809,149.54999999999998L297.288357977364,146.24999999999997L300.656375502008,151.49999999999997L304.13666027747354,147.3L307.61694505293906,151.8L310.8726953267616,143.84999999999997L314.34830230010954,155.40000000000003L317.71631982475355,151.65L321.1966046002191,146.7L324.5646221248631,149.54999999999998L328.0449069003286,153.45000000000002L331.5251916757941,160.95L334.8932092004381,164.85L338.37817177802117,164.7L341.74618930266524,161.4L345.2264740781307,163.35L348.7067588535962,157.35L351.8502418765973,166.5L355.32584884994526,169.65L358.6938663745893,165.75L362.17415115005474,164.25L365.5421686746988,173.7L369.0224534501643,168.6L372.5027382256298,179.85000000000002L375.8707557502738,175.95L379.3557183278569,172.2L382.7237358525009,184.95000000000002L386.2040206279664,185.55L389.68430540343195,181.05L392.82778842643296,195.45L396.3033953997809,198.3L399.671412924425,196.64999999999998L403.15169769989046,201L406.5197152245345,197.10000000000002L410,201.3" data-legend="xml" style="stroke: rgb(255, 127, 14); fill: none;"></path></g></g><g transform="translate(20, 150)"><text transform="rotate(-90)" x="-50" y="0" dy="1em" class="axis-label y-axis-label" style="text-anchor: middle; font-weight: bold;">% of Stack Overflow questions that month</text></g><g class="legend" transform="translate(530, 30)" style="font-size: 12px;"><text class="legend-title" style="font-weight: bold;">Tag</text><g class="legend-items" transform="translate(0,20)"><text y="0em" x="1em">json</text><text y="1em" x="1em">xml</text><circle cy="-0.25em" cx="0" r="0.4em" style="fill: rgb(31, 119, 180);"></circle><circle cy="0.75em" cx="0" r="0.4em" style="fill: rgb(255, 127, 14);"></circle></g><rect class="legend-box"></rect></g></svg>
            